<?xml version="1.0" encoding="UTF-8"?>
<svg version="1.1" xmlns="http://www.w3.org/2000/svg" width="290" height="321">
<path d="M0 0 C95.7 0 191.4 0 290 0 C290 105.93 290 211.86 290 321 C194.3 321 98.6 321 0 321 C0 215.07 0 109.14 0 0 Z " fill="#FAFBFC" transform="translate(0,0)"/>
<path d="M0 0 C1.18730503 0.62681364 2.3734051 1.25591258 3.55859375 1.88671875 C36.11075573 18.52304264 71.30042005 30.80283591 106.99609375 38.57421875 C107.97852051 38.78900879 108.96094727 39.00379883 109.97314453 39.22509766 C117.20272639 40.78316539 124.40388285 42.32935476 131.76293945 43.11962891 C132.5597261 43.20588531 133.35651276 43.29214172 134.17744446 43.38101196 C134.77759872 43.4447702 135.37775299 43.50852844 135.99609375 43.57421875 C136.09027248 58.80570726 136.160428 74.03718224 136.20334244 89.26889801 C136.22381367 96.34407894 136.25163135 103.41907715 136.29785156 110.49414062 C136.33820027 116.6734753 136.36363808 122.85267747 136.37244773 129.03214025 C136.37758304 132.29267585 136.39154093 135.55275265 136.41901398 138.81318665 C136.75015576 179.79880595 127.78219863 218.63933963 98.30859375 248.69921875 C82.87647194 263.97821498 63.72285611 274.5479725 44.81640625 284.9140625 C40.38657171 287.34650806 35.99524813 289.8433868 31.60571289 292.34765625 C22.90871939 297.300343 14.17988102 302.19793416 5.37109375 306.94921875 C4.50057373 307.43189209 3.63005371 307.91456543 2.7331543 308.41186523 C1.92015869 308.84442627 1.10716309 309.2769873 0.26953125 309.72265625 C-0.43768066 310.10599121 -1.14489258 310.48932617 -1.87353516 310.88427734 C-5.61284409 312.09528892 -8.24880366 310.92982217 -11.7043457 309.30249023 C-12.6655835 308.77212158 -13.62682129 308.24175293 -14.6171875 307.6953125 C-16.22871704 306.81456055 -16.22871704 306.81456055 -17.87280273 305.91601562 C-19.00919189 305.28759766 -20.14558105 304.65917969 -21.31640625 304.01171875 C-23.68676394 302.71499869 -26.06002201 301.42363808 -28.43359375 300.1328125 C-29.57538086 299.51132324 -30.71716797 298.88983398 -31.89355469 298.24951172 C-35.54226592 296.28424826 -39.2213371 294.39985578 -42.94140625 292.57421875 C-79.86906488 274.32619391 -79.86906488 274.32619391 -95.00390625 263.57421875 C-95.59300781 263.15720703 -96.18210938 262.74019531 -96.7890625 262.31054688 C-121.45173754 244.6273537 -138.83164682 219.4142068 -145.00390625 189.57421875 C-146.09568416 182.61754325 -146.13280652 175.79451933 -146.1015625 168.76171875 C-146.09944008 166.94752441 -146.09944008 166.94752441 -146.09727478 165.09667969 C-146.09170334 161.2558336 -146.07915609 157.41504705 -146.06640625 153.57421875 C-146.06138756 150.96093835 -146.0568253 148.34765702 -146.05273438 145.734375 C-146.04259666 139.34761518 -146.02301559 132.96098316 -146.00390625 126.57421875 C-128.18390625 126.57421875 -110.36390625 126.57421875 -92.00390625 126.57421875 C-92.00390625 145.38421875 -92.00390625 164.19421875 -92.00390625 183.57421875 C-104.87390625 183.57421875 -117.74390625 183.57421875 -131.00390625 183.57421875 C-128.76280195 195.76658906 -128.76280195 195.76658906 -124.87890625 207.19921875 C-124.4310376 208.25604858 -124.4310376 208.25604858 -123.97412109 209.33422852 C-115.4902382 228.51301135 -100.21828929 242.14352294 -83.19140625 253.69921875 C-82.49345947 254.17794434 -81.7955127 254.65666992 -81.07641602 255.14990234 C-76.45540214 258.22150205 -71.67025101 260.8098383 -66.6965332 263.26123047 C-66.05098732 263.58159775 -65.40544144 263.90196503 -64.74033356 264.23204041 C-63.16249716 265.01473048 -61.58333638 265.79474976 -60.00390625 266.57421875 C-60.01312418 265.65907501 -60.02234211 264.74393127 -60.03183937 263.80105591 C-60.25276185 241.52513284 -60.41820068 219.24939878 -60.52202797 196.97261047 C-60.5735741 186.19960163 -60.64383753 175.42732438 -60.75830078 164.65478516 C-60.85802973 155.26446034 -60.92250144 145.87466537 -60.9447912 136.48382568 C-60.95781965 131.51192629 -60.98839383 126.54154253 -61.06120682 121.57012939 C-61.12922785 116.88783638 -61.14999538 112.20767876 -61.13498306 107.52493858 C-61.13772805 105.80919461 -61.1575417 104.09337726 -61.195961 102.37806129 C-61.47184578 89.42204194 -61.47184578 89.42204194 -57.81339645 84.8168335 C-55.29895989 82.78034833 -52.81951488 81.15700772 -50.00390625 79.57421875 C-48.92514581 78.77006279 -47.85951214 77.94755095 -46.81640625 77.09765625 C-45.88828125 76.38867188 -44.96015625 75.6796875 -44.00390625 74.94921875 C-40.19358445 72.03629743 -36.39921639 69.10523626 -32.62890625 66.140625 C-25.72279931 60.71361204 -18.8103131 55.28335535 -11.69140625 50.13671875 C-10.70527344 49.41613281 -9.71914062 48.69554687 -8.703125 47.953125 C-5.40010307 46.26576358 -4.49973339 46.54577224 -1.00390625 47.57421875 C1.6965332 48.99780273 1.6965332 48.99780273 4.609375 50.8203125 C5.68501709 51.48820801 6.76065918 52.15610352 7.86889648 52.84423828 C9.01552724 53.5666286 10.16209173 54.28912413 11.30859375 55.01171875 C12.48531469 55.7453412 13.66248211 56.47824795 14.84008789 57.21044922 C19.86422058 60.33863611 24.8708744 63.49455705 29.87890625 66.6484375 C31.23036041 67.49887011 32.58191485 68.3491434 33.93359375 69.19921875 C34.56185059 69.59520264 35.19010742 69.99118652 35.83740234 70.39916992 C40.21790442 73.14096117 44.67822286 75.66452888 49.2734375 78.02734375 C50.17191406 78.5378125 51.07039062 79.04828125 51.99609375 79.57421875 C52.72332642 79.92350433 53.45055908 80.27278992 54.1998291 80.63265991 C60.51799066 84.08590061 60.51799066 84.08590061 61.78993225 88.04541016 C62.03852795 91.0996002 62.00881626 94.03620126 61.875 97.09765625 C61.85589821 98.74962509 61.85589821 98.74962509 61.83641052 100.43496704 C61.78614935 103.94198682 61.67326239 107.44377202 61.55859375 110.94921875 C61.51343808 113.33065426 61.47237541 115.71217115 61.43554688 118.09375 C61.3364827 123.92234958 61.18602277 129.74791031 60.99609375 135.57421875 C61.73794922 135.85273682 62.47980469 136.13125488 63.24414062 136.41821289 C65.72652393 137.46098125 67.78719324 138.59352363 70.02734375 140.0703125 C70.75566406 140.54662109 71.48398438 141.02292969 72.234375 141.51367188 C73.35392578 142.25520508 73.35392578 142.25520508 74.49609375 143.01171875 C75.98519939 143.99031062 77.47477093 144.96819395 78.96484375 145.9453125 C79.94614258 146.59391235 79.94614258 146.59391235 80.94726562 147.25561523 C83.01597475 148.6691745 83.01597475 148.6691745 85.58293152 149.67062378 C87.99609375 151.57421875 87.99609375 151.57421875 88.6353302 155.01005554 C88.66757905 156.45647382 88.67223088 157.9036606 88.65551758 159.3503418 C88.66600128 160.14081909 88.67648499 160.93129639 88.68728638 161.74572754 C88.71609682 164.35952722 88.70973824 166.97200711 88.703125 169.5859375 C88.71623648 171.39770676 88.73153901 173.20946139 88.74894714 175.02119446 C88.78887467 179.79045284 88.79899255 184.55932953 88.80297852 189.32873535 C88.8122954 194.19518673 88.8496998 199.06141246 88.88476562 203.92773438 C88.94942031 213.47655189 88.98259573 223.02520152 88.99609375 232.57421875 C102.27638771 219.4248323 110.69924573 202.68487812 114.99609375 184.57421875 C115.24234497 183.56895142 115.48859619 182.56368408 115.74230957 181.5279541 C118.50746908 168.77680878 118.47341841 156.17066371 118.5078125 143.16796875 C118.52469028 140.74702055 118.54284459 138.32608095 118.56221008 135.90515137 C118.60937975 129.58590381 118.6394018 123.26669112 118.66564941 116.94732666 C118.69562295 110.47783525 118.74209492 104.00846364 118.78710938 97.5390625 C118.87276598 84.88418015 118.94083912 72.22926855 118.99609375 59.57421875 C118.43638382 59.46319321 117.87667389 59.35216766 117.30000305 59.23777771 C114.71544235 58.72454779 112.13115834 58.20993712 109.546875 57.6953125 C108.22677429 57.43349182 108.22677429 57.43349182 106.88000488 57.16638184 C94.57387986 54.7130981 82.61738718 51.96519842 70.75 47.83203125 C67.65866462 46.79622481 64.57092819 45.89730304 61.42333984 45.05395508 C41.69701044 39.67822776 22.39608054 31.15740323 4.17724609 21.96435547 C-2.11776325 18.62535732 -2.11776325 18.62535732 -9.00390625 17.57421875 C-12.51118323 18.80450998 -15.76268472 20.44307797 -19.06640625 22.13671875 C-20.96994269 23.07574261 -22.873588 24.01454584 -24.77734375 24.953125 C-26.51983388 25.82621919 -28.2620577 26.69984527 -30.00390625 27.57421875 C-51.38836898 38.11690842 -74.06358652 45.76830791 -97.06835938 51.8762207 C-101.17725046 52.9694779 -101.17725046 52.9694779 -105.06640625 54.65234375 C-108.02861228 56.06178049 -111.0112886 56.24616055 -114.25390625 56.63671875 C-115.5171875 56.79269531 -116.78046875 56.94867188 -118.08203125 57.109375 C-119.37625 57.26277344 -120.67046875 57.41617188 -122.00390625 57.57421875 C-123.41908185 57.74947059 -124.8341231 57.92581097 -126.24902344 58.10327148 C-127.48813477 58.25868408 -128.72724609 58.41409668 -130.00390625 58.57421875 C-130.00168564 59.26104233 -129.99946503 59.94786591 -129.99717712 60.65550232 C-129.9751273 67.77627037 -129.96000092 74.89702879 -129.94897461 82.01782227 C-129.94393242 84.67863356 -129.93709889 87.33944207 -129.9284668 90.00024414 C-129.91639616 93.81527391 -129.91067696 97.63026719 -129.90625 101.4453125 C-129.90108871 102.64320908 -129.89592743 103.84110565 -129.89060974 105.07530212 C-129.89049644 106.72690086 -129.89049644 106.72690086 -129.89038086 108.41186523 C-129.88816025 109.38671371 -129.88593964 110.36156219 -129.88365173 111.36595154 C-130.00390625 113.57421875 -130.00390625 113.57421875 -131.00390625 114.57421875 C-136.28390625 114.57421875 -141.56390625 114.57421875 -147.00390625 114.57421875 C-147.00390625 91.47421875 -147.00390625 68.37421875 -147.00390625 44.57421875 C-135.78390625 42.26421875 -124.56390625 39.95421875 -113.00390625 37.57421875 C-103.61123703 35.03037083 -94.28832031 32.45954308 -85.00390625 29.57421875 C-84.13894531 29.30754395 -83.27398437 29.04086914 -82.3828125 28.76611328 C-70.33425173 25.0143633 -58.65409563 20.40878495 -47.00390625 15.57421875 C-45.67359375 15.02628662 -45.67359375 15.02628662 -44.31640625 14.46728516 C-33.87412904 10.15196909 -23.71297649 5.60969396 -13.83984375 0.10546875 C-8.3879662 -2.83824475 -5.53955693 -2.62930856 0 0 Z " fill="#142F46" transform="translate(151.00390625,2.42578125)"/>
<path d="M0 0 C47.52 0 95.04 0 144 0 C144 105.93 144 211.86 144 321 C48.3 321 -47.4 321 -146 321 C-146.061875 289.85625 -146.12375 258.7125 -146.1875 226.625 C-146.21481201 216.7760791 -146.24212402 206.9271582 -146.27026367 196.77978516 C-146.28381348 184.79174805 -146.28381348 184.79174805 -146.28633118 179.18710327 C-146.28913636 175.2563066 -146.30041907 171.32563037 -146.31672668 167.39486694 C-146.3372209 162.38908309 -146.34348902 157.38347575 -146.33921683 152.37765384 C-146.34011087 150.53543511 -146.34610876 148.69321055 -146.35764539 146.85102773 C-146.37245344 144.37235127 -146.36901286 141.89437062 -146.36076355 139.41567993 C-146.36950154 138.68632421 -146.37823954 137.9569685 -146.38724232 137.20551109 C-146.36914349 135.1977787 -146.36914349 135.1977787 -146 132 C-144.515 131.01 -144.515 131.01 -143 130 C-142.98969254 130.59975647 -142.97938507 131.19951294 -142.96876526 131.81744385 C-142.85979553 138.11276184 -142.74528268 144.40796239 -142.62768555 150.703125 C-142.58462383 153.04619874 -142.54293129 155.38929808 -142.50268555 157.73242188 C-142.44427886 161.11856779 -142.38079506 164.50458816 -142.31640625 167.890625 C-142.29133751 169.43825531 -142.29133751 169.43825531 -142.26576233 171.01715088 C-142.1256366 178.04360198 -141.66050147 185.00364529 -141 192 C-140.34 192 -139.68 192 -139 192 C-138.48953125 193.8871875 -138.48953125 193.8871875 -137.96875 195.8125 C-127.8423118 232.04849672 -105.72950408 257.19609587 -73.25 275.5 C-61.23679458 282.17023007 -49.06149145 288.55805223 -36.71557617 294.58984375 C-32.05969982 296.89397184 -27.50070132 299.35735965 -22.953125 301.8671875 C-21.68427509 302.56311056 -20.41531255 303.25882831 -19.14624023 303.9543457 C-17.23530253 305.00184267 -15.32777927 306.05390416 -13.42849731 307.12240601 C-11.64266494 308.12692011 -9.84793241 309.11357449 -8.05078125 310.09765625 C-7.00575439 310.68039307 -5.96072754 311.26312988 -4.8840332 311.86352539 C-1.54410591 313.17964844 -0.35092212 313.17252977 3 312 C5.11835981 311.00791393 7.20352149 309.94356493 9.26171875 308.83203125 C9.85241653 308.51473557 10.44311432 308.19743988 11.05171204 307.87052917 C12.29971891 307.19856817 13.54604537 306.52347791 14.79077148 305.84545898 C16.66093641 304.82696654 18.5359304 303.81790952 20.41210938 302.81054688 C26.6395312 299.45369751 32.79519226 296.0062597 38.82739258 292.30639648 C41.18527258 290.88859495 43.58215697 289.56257853 46 288.25 C46.91652344 287.75242187 47.83304688 287.25484375 48.77734375 286.7421875 C50.50134146 285.81018389 52.2258424 284.87909162 53.95361328 283.95410156 C91.38295888 263.86837462 120.84647373 239.6347305 133.94140625 198.0390625 C136.20777063 189.84157433 137.64457789 181.38976604 139 173 C139.16904343 172.03734726 139.33808685 171.07469452 139.51225281 170.08287048 C140.25615563 164.80728454 140.17741802 159.50790921 140.20532227 154.18969727 C140.21522186 153.01824661 140.22512146 151.84679596 140.23532104 150.6398468 C140.26681523 146.78205358 140.29164566 142.92424807 140.31640625 139.06640625 C140.33698621 136.38597708 140.3579366 133.70555337 140.37937927 131.02513123 C140.42916752 124.70009669 140.47415741 118.3750376 140.51740164 112.04995531 C140.56689302 104.84554798 140.62176677 97.64118475 140.67708123 90.43682015 C140.7906882 75.62458863 140.89757306 60.81231316 141 46 C140.39289216 46.00616616 139.78578432 46.01233232 139.16027927 46.01868534 C138.35808429 46.02348125 137.5558893 46.02827715 136.72938538 46.03321838 C135.54028612 46.04246763 135.54028612 46.04246763 134.32716465 46.05190372 C131.03860189 45.97855754 127.96109622 45.39096015 124.74609375 44.71484375 C124.09179886 44.57874695 123.43750397 44.44265015 122.76338196 44.3024292 C120.65218228 43.85864854 118.54474789 43.39965818 116.4375 42.9375 C115.70768921 42.77972076 114.97787842 42.62194153 114.22595215 42.4593811 C100.95535566 39.58133541 87.92443251 36.1836076 75 32 C73.88238281 31.64067383 72.76476562 31.28134766 71.61328125 30.91113281 C11.33099542 11.33099542 11.33099542 11.33099542 0 0 Z " fill="#FCFCFD" transform="translate(146,0)"/>
<path d="M0 0 C0.04626898 11.30883235 0.08184146 22.61764231 0.10362434 33.92654991 C0.11407717 39.17730418 0.12826363 44.42799385 0.15087891 49.67871094 C0.17255395 54.74261742 0.18455732 59.80646164 0.18975449 64.87041092 C0.19345987 66.80578212 0.20069519 68.74114979 0.21146011 70.6764946 C0.22590414 73.37994597 0.22798093 76.08313756 0.22705078 78.78662109 C0.23424133 79.59294479 0.24143188 80.39926849 0.24884033 81.23002625 C0.22810432 86.77189568 0.22810432 86.77189568 -2 89 C-1.01 89.495 -1.01 89.495 0 90 C0 140.16 0 190.32 0 242 C-6.75562628 240.87406229 -6.75562628 240.87406229 -9.70703125 239.46875 C-10.69751465 239.00154541 -10.69751465 239.00154541 -11.70800781 238.52490234 C-12.40249023 238.18668457 -13.09697266 237.8484668 -13.8125 237.5 C-14.54952148 237.14760254 -15.28654297 236.79520508 -16.04589844 236.43212891 C-22.00568126 233.55337933 -27.86823901 230.4977842 -33.67504883 227.32226562 C-37.96799196 224.99455091 -42.33566369 222.89555768 -46.77441406 220.85791016 C-47.94135803 220.32154938 -49.108302 219.7851886 -50.31060791 219.23257446 C-51.64185699 218.6224501 -51.64185699 218.6224501 -53 218 C-53.23368586 194.66932678 -53.40998452 171.33884674 -53.51812172 148.0072403 C-53.56966841 137.17369954 -53.63993295 126.34088627 -53.75439453 115.5078125 C-53.85412171 106.06475 -53.91859479 96.62221436 -53.94088495 87.17863989 C-53.95391368 82.17879858 -53.98448982 77.18046437 -54.05730057 72.18110657 C-54.1253187 67.47255186 -54.14608966 62.76612062 -54.13107681 58.05712128 C-54.13382192 56.33170263 -54.15363717 54.60621104 -54.19205475 52.88121796 C-54.46793972 39.85157619 -54.46793972 39.85157619 -50.8094902 35.23701477 C-48.29500221 33.20035916 -45.81724715 31.58001246 -43 30 C-41.92113294 29.19598709 -40.85547949 28.37348731 -39.8125 27.5234375 C-38.884375 26.81445312 -37.95625 26.10546875 -37 25.375 C-31.48200664 21.14805379 -25.9869026 16.89222097 -20.5 12.625 C-19.73429687 12.02993652 -18.96859375 11.43487305 -18.1796875 10.82177734 C-17.45007813 10.25410645 -16.72046875 9.68643555 -15.96875 9.1015625 C-15.2787793 8.5653125 -14.58880859 8.0290625 -13.87792969 7.4765625 C-12.29089388 6.22872156 -10.72842948 4.9497249 -9.171875 3.6640625 C-6.55717392 1.66071239 -3.39488301 0 0 0 Z " fill="#2D5D84" transform="translate(144,52)"/>
<path d="M0 0 C1.18730503 0.62681364 2.3734051 1.25591258 3.55859375 1.88671875 C36.11075573 18.52304264 71.30042005 30.80283591 106.99609375 38.57421875 C107.97852051 38.78900879 108.96094727 39.00379883 109.97314453 39.22509766 C117.20272639 40.78316539 124.40388285 42.32935476 131.76293945 43.11962891 C132.5597261 43.20588531 133.35651276 43.29214172 134.17744446 43.38101196 C134.77759872 43.4447702 135.37775299 43.50852844 135.99609375 43.57421875 C136.09027248 58.80570726 136.160428 74.03718224 136.20334244 89.26889801 C136.22381367 96.34407894 136.25163135 103.41907715 136.29785156 110.49414062 C136.33820027 116.6734753 136.36363808 122.85267747 136.37244773 129.03214025 C136.37758304 132.29267585 136.39154093 135.55275265 136.41901398 138.81318665 C136.75015576 179.79880595 127.78219863 218.63933963 98.30859375 248.69921875 C82.87834679 263.97635873 63.72777093 274.54428189 44.82421875 284.91015625 C40.35868273 287.36229697 35.9302412 289.87680411 31.50366211 292.3984375 C23.12942796 297.16348294 14.73136286 301.8843328 6.24609375 306.44921875 C5.45404541 306.88427734 4.66199707 307.31933594 3.84594727 307.76757812 C1.93603732 308.78236949 -0.0305255 309.68916172 -2.00390625 310.57421875 C-2.99390625 310.24421875 -3.98390625 309.91421875 -5.00390625 309.57421875 C-5.00390625 303.96421875 -5.00390625 298.35421875 -5.00390625 292.57421875 C-1.72453125 290.96546875 -1.72453125 290.96546875 1.62109375 289.32421875 C11.24709895 284.5389961 20.6722554 279.39666744 30.07568359 274.19042969 C32.03779117 273.10456176 34.00169041 272.02192557 35.96728516 270.94238281 C58.55076337 258.65970114 58.55076337 258.65970114 78.61328125 242.71875 C79.99609375 241.57421875 79.99609375 241.57421875 81.99609375 241.57421875 C82.28484375 240.95546875 82.57359375 240.33671875 82.87109375 239.69921875 C83.99609375 237.57421875 83.99609375 237.57421875 85.99609375 235.57421875 C86.21358854 232.89570783 86.3074993 230.3174694 86.31494141 227.63623047 C86.33000984 226.4068425 86.33000984 226.4068425 86.34538269 225.15261841 C86.37633909 222.43638834 86.39328423 219.72025736 86.41015625 217.00390625 C86.4288579 215.1234552 86.44843054 213.24301262 86.46884155 211.36257935 C86.52027483 206.40766386 86.55984048 201.45272113 86.59698486 196.49768066 C86.6369545 191.4436971 86.68807886 186.38982795 86.73828125 181.3359375 C86.83517301 171.41544482 86.91953523 161.49488771 86.99609375 151.57421875 C87.32609375 151.57421875 87.65609375 151.57421875 87.99609375 151.57421875 C88.32609375 178.30421875 88.65609375 205.03421875 88.99609375 232.57421875 C102.24377913 219.32653337 110.68487095 202.74546596 114.99609375 184.57421875 C115.24234497 183.56895142 115.48859619 182.56368408 115.74230957 181.5279541 C118.50746908 168.77680878 118.47341841 156.17066371 118.5078125 143.16796875 C118.52469028 140.74702055 118.54284459 138.32608095 118.56221008 135.90515137 C118.60937975 129.58590381 118.6394018 123.26669112 118.66564941 116.94732666 C118.69562295 110.47783525 118.74209492 104.00846364 118.78710938 97.5390625 C118.87276598 84.88418015 118.94083912 72.22926855 118.99609375 59.57421875 C118.43638382 59.46319321 117.87667389 59.35216766 117.30000305 59.23777771 C114.71544235 58.72454779 112.13115834 58.20993712 109.546875 57.6953125 C108.22677429 57.43349182 108.22677429 57.43349182 106.88000488 57.16638184 C94.57387986 54.7130981 82.61738718 51.96519842 70.75 47.83203125 C67.65866462 46.79622481 64.57092819 45.89730304 61.42333984 45.05395508 C41.69701044 39.67822776 22.39608054 31.15740323 4.17724609 21.96435547 C-2.11776325 18.62535732 -2.11776325 18.62535732 -9.00390625 17.57421875 C-12.51118323 18.80450998 -15.76268472 20.44307797 -19.06640625 22.13671875 C-20.96994269 23.07574261 -22.873588 24.01454584 -24.77734375 24.953125 C-26.51983388 25.82621919 -28.2620577 26.69984527 -30.00390625 27.57421875 C-51.38836898 38.11690842 -74.06358652 45.76830791 -97.06835938 51.8762207 C-101.17725046 52.9694779 -101.17725046 52.9694779 -105.06640625 54.65234375 C-108.02861228 56.06178049 -111.0112886 56.24616055 -114.25390625 56.63671875 C-115.5171875 56.79269531 -116.78046875 56.94867188 -118.08203125 57.109375 C-119.37625 57.26277344 -120.67046875 57.41617188 -122.00390625 57.57421875 C-123.41908185 57.74947059 -124.8341231 57.92581097 -126.24902344 58.10327148 C-127.48813477 58.25868408 -128.72724609 58.41409668 -130.00390625 58.57421875 C-130.00168564 59.26104233 -129.99946503 59.94786591 -129.99717712 60.65550232 C-129.9751273 67.77627037 -129.96000092 74.89702879 -129.94897461 82.01782227 C-129.94393242 84.67863356 -129.93709889 87.33944207 -129.9284668 90.00024414 C-129.91639616 93.81527391 -129.91067696 97.63026719 -129.90625 101.4453125 C-129.90108871 102.64320908 -129.89592743 103.84110565 -129.89060974 105.07530212 C-129.89049644 106.72690086 -129.89049644 106.72690086 -129.89038086 108.41186523 C-129.88816025 109.38671371 -129.88593964 110.36156219 -129.88365173 111.36595154 C-130.00390625 113.57421875 -130.00390625 113.57421875 -131.00390625 114.57421875 C-136.28390625 114.57421875 -141.56390625 114.57421875 -147.00390625 114.57421875 C-147.00390625 91.47421875 -147.00390625 68.37421875 -147.00390625 44.57421875 C-135.78390625 42.26421875 -124.56390625 39.95421875 -113.00390625 37.57421875 C-103.61123703 35.03037083 -94.28832031 32.45954308 -85.00390625 29.57421875 C-84.13894531 29.30754395 -83.27398437 29.04086914 -82.3828125 28.76611328 C-70.33425173 25.0143633 -58.65409563 20.40878495 -47.00390625 15.57421875 C-45.67359375 15.02628662 -45.67359375 15.02628662 -44.31640625 14.46728516 C-33.87412904 10.15196909 -23.71297649 5.60969396 -13.83984375 0.10546875 C-8.3879662 -2.83824475 -5.53955693 -2.62930856 0 0 Z " fill="#2E5D83" transform="translate(151.00390625,2.42578125)"/>
<path d="M0 0 C47.19 0 94.38 0 143 0 C140.02439317 2.23170512 137.69035777 3.76908975 134.421875 5.34765625 C133.52049805 5.78303711 132.61912109 6.21841797 131.69042969 6.66699219 C130.23491699 7.35776855 130.23491699 7.35776855 128.75 8.0625 C127.73583008 8.54493164 126.72166016 9.02736328 125.67675781 9.52441406 C114.6068295 14.73439262 103.35836463 19.45909113 92 24 C91.22897949 24.31388672 90.45795898 24.62777344 89.66357422 24.95117188 C62.33627007 36.00767971 32.29648865 44.07035113 3 47 C3 69.11 3 91.22 3 114 C2.01 114 1.02 114 0 114 C0 76.38 0 38.76 0 0 Z " fill="#FBFCFD" transform="translate(0,0)"/>
<path d="M0 0 C17.82 0 35.64 0 54 0 C54 18.81 54 37.62 54 57 C41.13 57 28.26 57 15 57 C17.24135431 69.19247695 17.24135431 69.19247695 21.125 80.625 C21.422854 81.32882813 21.72070801 82.03265625 22.02758789 82.7578125 C26.77747648 93.50621528 33.94297329 102.50389827 42 111 C40 112 40 112 38.0625 112.1875 C35.63634226 112.89468752 35.63634226 112.89468752 34.25 116.0625 C33.63125 117.5165625 33.63125 117.5165625 33 119 C34.65 120.98 36.3 122.96 38 125 C22.61168006 117.99013625 12.39407219 97.0084509 6.6875 81.8125 C1.82810486 68.38581481 -0.16090338 56.42396716 -0.09765625 42.1875 C-0.0962413 40.97803711 -0.09482635 39.76857422 -0.09336853 38.52246094 C-0.08779709 34.68161485 -0.07524984 30.8408283 -0.0625 27 C-0.05748131 24.3867196 -0.05291905 21.77343827 -0.04882812 19.16015625 C-0.03869041 12.77339643 -0.01910934 6.38676441 0 0 Z " fill="#152D43" transform="translate(5,129)"/>
<path d="M0 0 C3.96 0 7.92 0 12 0 C12 40.59 12 81.18 12 123 C-3.59483613 116.76206555 -22.21260015 100.35171212 -29.22265625 85.0078125 C-31.32287847 79.58311793 -32 74.89826805 -32 69 C-21.44 69 -10.88 69 0 69 C0 46.23 0 23.46 0 0 Z " fill="#173149" transform="translate(69,129)"/>
<path d="M0 0 C5.24520012 0.42909452 7.94721898 1.25490304 11.8125 4.8125 C23.39424049 14.7759699 36.27167154 22.58458201 50.06298828 29.07763672 C52.61039981 30.29065925 55.12502749 31.56413349 57.64160156 32.83959961 C65.948194 37.04673876 74.34565084 41.06128171 82.75610352 45.0559082 C88.15258693 47.62209778 93.50616351 50.24782914 98.81298828 52.99536133 C101.23530643 54.18956529 101.23530643 54.18956529 105 55 C105 60.61 105 66.22 105 72 C105.66 72.33 106.32 72.66 107 73 C105.37207031 73.68139648 105.37207031 73.68139648 103 74 C100.22949219 72.86352539 100.22949219 72.86352539 97.046875 71.09765625 C96.47474777 70.78512909 95.90262054 70.47260193 95.31315613 70.15060425 C94.08890093 69.48020268 92.86763647 68.80431589 91.6491394 68.12350464 C89.09513726 66.69664355 86.52704577 65.29611468 83.95933533 63.89411926 C82.69041566 63.20096585 81.42223185 62.50646356 80.15480042 61.81059265 C75.79494018 59.41908776 71.40455998 57.12089778 66.9375 54.9375 C30.12689054 36.75779397 30.12689054 36.75779397 15 26 C14.36835937 25.55108398 13.73671875 25.10216797 13.0859375 24.63964844 C2.02255436 16.67788248 2.02255436 16.67788248 -1 11 C-1.98244845 9.65368175 -2.97676564 8.31558703 -4 7 C-3.525625 6.21625 -3.05125 5.4325 -2.5625 4.625 C-1.66101977 3.11051322 -0.78820515 1.5764103 0 0 Z " fill="#142D45" transform="translate(41,240)"/>
<path d="M0 0 C8.91 0 17.82 0 27 0 C27 10.89 27 21.78 27 33 C18.09 33 9.18 33 0 33 C0 22.11 0 11.22 0 0 Z " fill="#F4F6F7" transform="translate(19,141)"/>
<path d="M0 0 C0.66 0 1.32 0 2 0 C2.02325756 8.3195075 2.04098308 16.63900122 2.05181217 24.95853329 C2.05701181 28.82238355 2.06405592 32.68621144 2.07543945 36.55004883 C2.08637273 40.28479289 2.09229878 44.01951553 2.09487724 47.75427437 C2.09671279 49.1730845 2.10029684 50.59189358 2.10573006 52.0106945 C2.15165007 64.50872798 2.15165007 64.50872798 1.43139648 70.38110352 C1.28903564 71.57533936 1.1466748 72.7695752 1 74 C1.33 74.33 1.66 74.66 2 75 C2.12667764 77.99018161 2.18520838 80.94694108 2.1875 83.9375 C2.19974609 84.77474609 2.21199219 85.61199219 2.22460938 86.47460938 C2.22654297 87.27576172 2.22847656 88.07691406 2.23046875 88.90234375 C2.23457764 89.63960693 2.23868652 90.37687012 2.24291992 91.13647461 C2 93 2 93 0 95 C0 88.73 0 82.46 0 76 C-4.95 76 -9.9 76 -15 76 C-13.71958443 83.96618393 -13.71958443 83.96618393 -10 91 C-9.34 91.99 -8.68 92.98 -8 94 C-10.49361571 92.79618552 -12.68143083 91.54571278 -15 90 C-15.39481421 94.14554918 -15.04589662 96.86784222 -12.5546875 100.27734375 C-9.02941109 104.18349174 -4.98623671 107.57670512 -1 111 C-4.67871799 111 -5.18085328 110.24690298 -7.8125 107.8125 C-10.16530946 105.66111503 -12.47081507 103.63708005 -15 101.6875 C-23.9597958 94.24548381 -29.80659158 84.33261016 -32 73 C-32 71.02 -32 69.04 -32 67 C-21.44 67 -10.88 67 0 67 C0 44.89 0 22.78 0 0 Z " fill="#162E44" transform="translate(69,131)"/>
<path d="M0 0 C0 5.61 0 11.22 0 17 C-1.59070313 17.89203125 -3.18140625 18.7840625 -4.8203125 19.703125 C-6.92194455 20.88529303 -9.0235032 22.06759156 -11.125 23.25 C-12.17171875 23.83652344 -13.2184375 24.42304687 -14.296875 25.02734375 C-20.57095673 28.5393318 -20.57095673 28.5393318 -26.6171875 32.421875 C-29 34 -29 34 -31 34 C-32.67210325 23.18441152 -32.67210325 23.18441152 -31 18 C-26.95478266 12.96829327 -20.22283307 10.20797257 -14.33203125 8 C-10.74116628 6.46019861 -8.06232457 3.94972533 -5.0859375 1.4609375 C-3 0 -3 0 0 0 Z " fill="#F3F7F9" transform="translate(143,89)"/>
<path d="M0 0 C0 5.28 0 10.56 0 16 C-3.0628125 17.2375 -3.0628125 17.2375 -6.1875 18.5 C-14.10997549 21.81144629 -22.88228417 25.88228417 -29 32 C-29.99 32 -30.98 32 -32 32 C-33.21261989 18.61065542 -33.21261989 18.61065542 -30.46484375 14.9609375 C-28.33717904 13.62448529 -26.39131597 12.76522111 -24 12 C-23.31035156 11.7628125 -22.62070313 11.525625 -21.91015625 11.28125 C-20.29486963 10.77915682 -18.64878167 10.3778458 -17 10 C-17 9.34 -17 8.68 -17 8 C-13.63316085 5.56839395 -12.26649636 5 -8 5 C-8 4.34 -8 3.68 -8 3 C-2.25 0 -2.25 0 0 0 Z " fill="#EDF2F5" transform="translate(144,192)"/>
<path d="M0 0 C0.66 0 1.32 0 2 0 C2 5.61 2 11.22 2 17 C0.845 17.391875 -0.31 17.78375 -1.5 18.1875 C-5.26327637 19.59790481 -8.43322826 21.41297495 -11.7890625 23.6015625 C-17.60719661 27.28158372 -23.61185078 30.44474031 -30 33 C-30 28.05 -30 23.1 -30 18 C-28.99582031 17.443125 -27.99164063 16.88625 -26.95703125 16.3125 C-12.68207391 9.24854058 -12.68207391 9.24854058 0 0 Z " fill="#F6F9FB" transform="translate(142,157)"/>
<path d="M0 0 C1.65 0 3.3 0 5 0 C5 4.62 5 9.24 5 14 C3.370625 14.78375 1.74125 15.5675 0.0625 16.375 C-6.27687356 19.52575197 -12.33621893 23.07547208 -18.38647461 26.74755859 C-19.08651611 27.16859863 -19.78655762 27.58963867 -20.5078125 28.0234375 C-21.13316895 28.40419434 -21.75852539 28.78495117 -22.40283203 29.17724609 C-24 30 -24 30 -26 30 C-27.35183924 17.81675749 -27.35183924 17.81675749 -24.5234375 14.015625 C-22.09797157 12.39864772 -19.65340633 11.21239193 -17 10 C-15.02313559 8.96656853 -13.06170699 7.90683509 -11.09985352 6.84521484 C-9.75729386 6.12349853 -8.40886792 5.41257486 -7.05444336 4.71337891 C-4.37367647 3.32790717 -2.14796795 2.14796795 0 0 Z " fill="#F6FAFB" transform="translate(138,126)"/>
<path d="M0 0 C17.82 0 35.64 0 54 0 C54 18.81 54 37.62 54 57 C40.8 57 27.6 57 14 57 C16 55 16 55 19.53173828 54.77294922 C21.04463326 54.77344968 22.55755201 54.78450889 24.0703125 54.8046875 C25.12883423 54.80770874 25.12883423 54.80770874 26.20874023 54.81079102 C28.84755951 54.82126364 31.48628621 54.84918625 34.125 54.875 C42.973125 54.936875 42.973125 54.936875 52 55 C52 37.51 52 20.02 52 2 C35.17 2 18.34 2 1 2 C1 17.51 1 33.02 1 49 C0.67 49 0.34 49 0 49 C0 32.83 0 16.66 0 0 Z " fill="#13202F" transform="translate(5,129)"/>
<path d="M0 0 C4.62 0 9.24 0 14 0 C14 41.58 14 83.16 14 126 C13.34 126 12.68 126 12 126 C12.33 84.75 12.66 43.5 13 1 C9.04 1 5.08 1 1 1 C1 23.77 1 46.54 1 70 C-9.56 70 -20.12 70 -31 70 C-30.01 74.62 -29.02 79.24 -28 84 C-28.33 84.99 -28.66 85.98 -29 87 C-31.21203894 81.1151417 -32.94338874 75.34046126 -33 69 C-32.505 68.505 -32.505 68.505 -32 68 C-21.44 68 -10.88 68 0 68 C0 45.56 0 23.12 0 0 Z " fill="#D8E1EA" transform="translate(68,128)"/>
<path d="M0 0 C0.66 0 1.32 0 2 0 C2.02325756 8.3195075 2.04098308 16.63900122 2.05181217 24.95853329 C2.05701181 28.82238355 2.06405592 32.68621144 2.07543945 36.55004883 C2.08637273 40.28479289 2.09229878 44.01951553 2.09487724 47.75427437 C2.09671279 49.1730845 2.10029684 50.59189358 2.10573006 52.0106945 C2.15165007 64.50872798 2.15165007 64.50872798 1.43139648 70.38110352 C1.28903564 71.57533936 1.1466748 72.7695752 1 74 C1.33 74.33 1.66 74.66 2 75 C2.12667764 77.99018161 2.18520838 80.94694108 2.1875 83.9375 C2.19974609 84.77474609 2.21199219 85.61199219 2.22460938 86.47460938 C2.22654297 87.27576172 2.22847656 88.07691406 2.23046875 88.90234375 C2.23457764 89.63960693 2.23868652 90.37687012 2.24291992 91.13647461 C2 93 2 93 0 95 C0 88.73 0 82.46 0 76 C-5.28 76 -10.56 76 -16 76 C-12.68629 73.79086 -11.6553979 73.77518447 -7.8125 73.875 C-6.91144531 73.89304687 -6.01039062 73.91109375 -5.08203125 73.9296875 C-4.39496094 73.95289063 -3.70789063 73.97609375 -3 74 C-2.67 72.35 -2.34 70.7 -2 69 C-15.86 68.505 -15.86 68.505 -30 68 C-29.34 71.63 -28.68 75.26 -28 79 C-28.33 80.32 -28.66 81.64 -29 83 C-29.51069267 81.4618423 -30.00802747 79.91924711 -30.5 78.375 C-30.7784375 77.51648438 -31.056875 76.65796875 -31.34375 75.7734375 C-32 73 -32 73 -32 67 C-21.44 67 -10.88 67 0 67 C0 44.89 0 22.78 0 0 Z " fill="#0A1828" transform="translate(69,131)"/>
<path d="M0 0 C4.38671802 1.88002201 8.73125051 3.86562525 13 6 C13 12.6 13 19.2 13 26 C8.024306 24.7560765 4.4463831 22.55013148 0 20 C0 13.4 0 6.8 0 0 Z " fill="#EEF1F3" transform="translate(161,161)"/>
<path d="M0 0 C0.99 0 1.98 0 3 0 C3 0.66 3 1.32 3 2 C3.63808594 2.13277344 4.27617187 2.26554687 4.93359375 2.40234375 C6.17302734 2.66724609 6.17302734 2.66724609 7.4375 2.9375 C8.26121094 3.11152344 9.08492187 3.28554687 9.93359375 3.46484375 C12 4 12 4 13 5 C13.08669432 6.4887186 13.10703494 7.981445 13.09765625 9.47265625 C13.09443359 10.37177734 13.09121094 11.27089844 13.08789062 12.19726562 C13.07951172 13.14279297 13.07113281 14.08832031 13.0625 15.0625 C13.05798828 16.01189453 13.05347656 16.96128906 13.04882812 17.93945312 C13.0370011 20.29303065 13.02052025 22.64648477 13 25 C9.62537285 24.45276317 7.91765 23.9451 5 22 C5 21.34 5 20.68 5 20 C2.525 19.01 2.525 19.01 0 18 C0 12.06 0 6.12 0 0 Z " fill="#E9EDF0" transform="translate(161,123)"/>
<path d="M0 0 C2.475 0.99 2.475 0.99 5 2 C5 2.66 5 3.32 5 4 C5.763125 4.103125 6.52625 4.20625 7.3125 4.3125 C10.2766702 5.0707761 11.14409713 5.63406778 13 8 C13.34057617 9.99291992 13.34057617 9.99291992 13.29296875 12.23046875 C13.28330078 13.03291016 13.27363281 13.83535156 13.26367188 14.66210938 C13.23853516 15.49548828 13.21339844 16.32886719 13.1875 17.1875 C13.17396484 18.03248047 13.16042969 18.87746094 13.14648438 19.74804688 C13.11115799 21.83230384 13.05735139 23.91623277 13 26 C11.68 25.67 10.36 25.34 9 25 C9 24.34 9 23.68 9 23 C7.88625 22.71125 6.7725 22.4225 5.625 22.125 C2 21 2 21 0 19 C-0.22705078 17.02880859 -0.22705078 17.02880859 -0.1953125 14.6484375 C-0.18886719 13.79765625 -0.18242187 12.946875 -0.17578125 12.0703125 C-0.15902344 11.18085937 -0.14226562 10.29140625 -0.125 9.375 C-0.11597656 8.4778125 -0.10695312 7.580625 -0.09765625 6.65625 C-0.0740497 4.43723414 -0.0411231 2.21874923 0 0 Z " fill="#E7EBEE" transform="translate(161,85)"/>
<path d="M0 0 C2 2 2 2 2.24609566 4.10456276 C2.24425207 4.98026609 2.24240849 5.85596943 2.24050903 6.75820923 C2.24325836 7.76224289 2.24600769 8.76627655 2.24884033 9.80073547 C2.24164978 10.90628281 2.23445923 12.01183014 2.22705078 13.15087891 C2.22734283 14.31184586 2.22763489 15.47281281 2.22793579 16.66896057 C2.22653804 20.52156954 2.21095575 24.37398715 2.1953125 28.2265625 C2.19158395 30.8917168 2.1886379 33.55686037 2.18673706 36.22201538 C2.18051488 42.52956575 2.16409413 48.837047 2.14403808 55.14456689 C2.12170199 62.32463622 2.11069143 69.5047088 2.10064721 76.6848042 C2.07972851 91.45657153 2.04453823 106.22828456 2 121 C-1.35594194 119.7367158 -3.63290296 118.74084921 -6 116 C-4.35 116.66 -2.7 117.32 -1 118 C-0.67 79.06 -0.34 40.12 0 0 Z " fill="#031425" transform="translate(79,131)"/>
<path d="M0 0 C10.56565657 5.28282828 10.56565657 5.28282828 12.34375 8.21875 C13.18279669 11.77470976 13.2152427 15.18543762 13.125 18.8125 C13.11597656 19.50537109 13.10695312 20.19824219 13.09765625 20.91210938 C13.07426157 22.60822395 13.03839641 24.30415871 13 26 C7.99554115 24.53528034 4.74177759 22.70958719 0 20 C0 13.4 0 6.8 0 0 Z " fill="#E8ECEF" transform="translate(186,99)"/>
<path d="M0 0 C5.64218718 0.55045729 7.57661103 1.90092059 13 5 C13 11.27 13 17.54 13 24 C7.69810382 22.67452595 3.4227679 21.46323194 0 17 C-1.16730554 11.43542521 -0.50636502 5.6137752 0 0 Z " fill="#EFF2F4" transform="translate(186,175)"/>
<path d="M0 0 C4.89114631 1.12351977 8.6502525 3.50529188 13 6 C13 11.94 13 17.88 13 24 C2.25 20.25 2.25 20.25 0 18 C-0.22705078 16.12060547 -0.22705078 16.12060547 -0.1953125 13.8671875 C-0.18886719 13.06152344 -0.18242187 12.25585938 -0.17578125 11.42578125 C-0.15064453 10.16314453 -0.15064453 10.16314453 -0.125 8.875 C-0.11597656 8.02550781 -0.10695312 7.17601562 -0.09765625 6.30078125 C-0.07405647 4.20040116 -0.03818483 2.10016556 0 0 Z " fill="#EDF1F3" transform="translate(161,202)"/>
<path d="M0 0 C4.95 0 9.9 0 15 0 C15 5.94 15 11.88 15 18 C12 19 12 19 8.5 17.75 C4.21749918 15.60874959 2.69424678 14.60772938 0.8125 10.25 C0 7 0 7 0 0 Z " fill="#E9EDF0" transform="translate(54,207)"/>
<path d="M0 0 C9.40217391 3.76086957 9.40217391 3.76086957 13 7 C13.45895455 10.04745819 13.5817278 12.2497965 13.375 15.25 C13.34792969 15.99507812 13.32085937 16.74015625 13.29296875 17.5078125 C13.22250808 19.33978993 13.11488993 21.17027151 13 23 C11.41375765 22.57316761 9.8310902 22.13303842 8.25 21.6875 C7.36828125 21.44386719 6.4865625 21.20023438 5.578125 20.94921875 C0.90521023 19.22873649 0.90521023 19.22873649 -1 17 C-1.3452036 14.06537888 -1.05285576 11.24250925 -0.75 8.3125 C-0.68425781 7.51521484 -0.61851562 6.71792969 -0.55078125 5.89648438 C-0.38587043 3.92933393 -0.19537406 1.96435878 0 0 Z " fill="#E6E9EC" transform="translate(186,138)"/>
<path d="M0 0 C0.66 0.33 1.32 0.66 2 1 C1.67 60.07 1.34 119.14 1 180 C-0.98 179.34 -2.96 178.68 -5 178 C-3.68 177.67 -2.36 177.34 -1 177 C-0.67 118.59 -0.34 60.18 0 0 Z " fill="#B9C8DA" transform="translate(90,89)"/>
<path d="M0 0 C1.85625 0.0309375 1.85625 0.0309375 3.75 0.0625 C3.75 0.3925 3.75 0.7225 3.75 1.0625 C0.45 1.3925 -2.85 1.7225 -6.25 2.0625 C-6.25 24.1725 -6.25 46.2825 -6.25 69.0625 C-1.96 69.0625 2.33 69.0625 6.75 69.0625 C7.08 69.7225 7.41 70.3825 7.75 71.0625 C2.47 71.0625 -2.81 71.0625 -8.25 71.0625 C-8.25 47.9625 -8.25 24.8625 -8.25 1.0625 C-5.12110801 0.280277 -3.1099909 -0.05183318 0 0 Z " fill="#294B6A" transform="translate(12.25,45.9375)"/>
<path d="M0 0 C0.33 0 0.66 0 1 0 C1 14.52 1 29.04 1 44 C-9.56 44 -20.12 44 -31 44 C-30.01 48.62 -29.02 53.24 -28 58 C-28.33 58.99 -28.66 59.98 -29 61 C-31.21203894 55.1151417 -32.94338874 49.34046126 -33 43 C-32 42 -32 42 -28.94897461 41.88647461 C-27.60008731 41.88672557 -26.25119355 41.89228185 -24.90234375 41.90234375 C-22.95702759 41.90609009 -22.95702759 41.90609009 -20.97241211 41.90991211 C-18.48013062 41.92356812 -18.48013062 41.92356812 -15.9375 41.9375 C-10.678125 41.958125 -5.41875 41.97875 0 42 C0 28.14 0 14.28 0 0 Z " fill="#C9D0D9" transform="translate(68,154)"/>
<path d="M0 0 C0.66 0 1.32 0 2 0 C3.87568563 5.56006813 4.30718879 10.46494625 4.25 16.3125 C4.25773437 17.12267578 4.26546875 17.93285156 4.2734375 18.76757812 C4.25352444 24.74647556 4.25352444 24.74647556 2 27 C2 20.73 2 14.46 2 8 C-3.28 8 -8.56 8 -14 8 C-10.68629 5.79086 -9.6553979 5.77518447 -5.8125 5.875 C-4.91144531 5.89304688 -4.01039062 5.91109375 -3.08203125 5.9296875 C-2.39496094 5.95289063 -1.70789063 5.97609375 -1 6 C-0.67 4.02 -0.34 2.04 0 0 Z " fill="#0F2236" transform="translate(67,199)"/>
<path d="M0 0 C0.66 0.33 1.32 0.66 2 1 C-1.31474819 3.0318769 -4.65317411 5.02142355 -8 7 C-8.6585498 7.39058594 -9.31709961 7.78117187 -9.99560547 8.18359375 C-12.13635151 9.44650113 -14.28575908 10.6934335 -16.4375 11.9375 C-17.13552734 12.3512085 -17.83355469 12.76491699 -18.55273438 13.19116211 C-20.32555566 14.20639144 -22.1599773 15.11236135 -24 16 C-24.99 15.67 -25.98 15.34 -27 15 C-26.18015625 14.52949219 -25.3603125 14.05898438 -24.515625 13.57421875 C-23.43796875 12.95160156 -22.3603125 12.32898438 -21.25 11.6875 C-20.18265625 11.07261719 -19.1153125 10.45773437 -18.015625 9.82421875 C-15.08324489 8.12468215 -15.08324489 8.12468215 -12.86328125 6.3671875 C-10.91829839 4.94005123 -9.21474888 4.20535849 -6.9375 3.4375 C-4.19155535 2.50461669 -2.48184908 1.65456605 0 0 Z " fill="#072748" transform="translate(188,271)"/>
<path d="M0 0 C0.66 0 1.32 0 2 0 C2 5.61 2 11.22 2 17 C0.35 17.33 -1.3 17.66 -3 18 C-2.505 16.515 -2.505 16.515 -2 15 C-1.34 15 -0.68 15 0 15 C0 11.04 0 7.08 0 3 C-0.66 2.67 -1.32 2.34 -2 2 C-1.34 1.34 -0.68 0.68 0 0 Z " fill="#BFCED7" transform="translate(142,157)"/>
<path d="M0 0 C0.66 0.33 1.32 0.66 2 1 C1.0925 1.721875 0.185 2.44375 -0.75 3.1875 C-2.9089266 4.96633389 -4.38582541 6.49930348 -6.125 8.75 C-8.1076546 11.12918552 -8.98078447 11.67651262 -12 12 C-12 11.01 -12 10.02 -12 9 C-10.03123367 7.30369687 -8.11326838 5.80463882 -6 4.3125 C-5.42765625 3.89677734 -4.8553125 3.48105469 -4.265625 3.05273438 C-2.85003468 2.02643139 -1.42580369 1.01206601 0 0 Z " fill="#2D5072" transform="translate(127,62)"/>
<path d="M0 0 C0.33 0.66 0.66 1.32 1 2 C-2.48355538 6.35444422 -5.66708507 7.13985243 -11 8 C-11.66 7.34 -12.32 6.68 -13 6 C-11.58671871 5.18162558 -10.16921654 4.37053781 -8.75 3.5625 C-7.56664063 2.88380859 -7.56664063 2.88380859 -6.359375 2.19140625 C-4.21166532 1.10688398 -2.34794939 0.46851284 0 0 Z " fill="#446584" transform="translate(126,183)"/>
<path d="M0 0 C0.33 0.66 0.66 1.32 1 2 C-0.43359375 4.49609375 -0.43359375 4.49609375 -2.4375 7.4375 C-5.30389568 11.36976705 -5.30389568 11.36976705 -6 16 C-7.98 16.99 -9.96 17.98 -12 19 C-10.64350814 14.65922604 -8.2744885 11.54725598 -5.53125 8.00390625 C-3.55277152 5.41472395 -1.77535013 2.73130789 0 0 Z " fill="#274667" transform="translate(257,213)"/>
<path d="M0 0 C0.33 0 0.66 0 1 0 C1 6.27 1 12.54 1 19 C-2.83736322 18.04065919 -3.59660228 17.76390737 -6 15 C-4.35 15 -2.7 15 -1 15 C-0.67 10.05 -0.34 5.1 0 0 Z " fill="#A1ABB7" transform="translate(198,180)"/>
<path d="M0 0 C2.31 0.33 4.62 0.66 7 1 C4.25604436 3.94721162 1.61662784 6.19168608 -2 8 C-2.66 7.67 -3.32 7.34 -4 7 C-3.34 5.68 -2.68 4.36 -2 3 C-1.34 3 -0.68 3 0 3 C0 2.01 0 1.02 0 0 Z " fill="#2C5679" transform="translate(136,86)"/>
<path d="M0 0 C4.30689238 1.34307888 8.27523429 2.98890874 12.3125 5 C13.88451172 5.7734375 13.88451172 5.7734375 15.48828125 6.5625 C18 8 18 8 19 10 C11.91987331 8.55179227 6.00615571 4.93506753 0 1 C0 0.67 0 0.34 0 0 Z " fill="#06213B" transform="translate(83,266)"/>
<path d="M0 0 C3.58375776 3.58375776 3.92387761 9.13500141 4.125 14.0625 C4.08375 14.701875 4.0425 15.34125 4 16 C3.01 15.34 2.02 14.68 1 14 C0.48828125 10.7421875 0.48828125 10.7421875 0.3125 6.875 C0.24675781 5.59367188 0.18101563 4.31234375 0.11328125 2.9921875 C0.07589844 2.00476563 0.03851562 1.01734375 0 0 Z " fill="#11202F" transform="translate(18,187)"/>
<path d="M0 0 C13.70844687 4.21798365 13.70844687 4.21798365 18 9 C11.48180123 7.10463724 5.82185199 4.4821006 0 1 C0 0.67 0 0.34 0 0 Z " fill="#294C68" transform="translate(147,19)"/>
<path d="M0 0 C0.33 0 0.66 0 1 0 C1.33 3.3 1.66 6.6 2 10 C3.65 10 5.3 10 7 10 C2.25 14 2.25 14 0 14 C0 9.38 0 4.76 0 0 Z " fill="#D9E7EF" transform="translate(112,142)"/>
<path d="M0 0 C3.25696479 0.41755959 4.63443291 0.63443291 7 3 C6.34 3 5.68 3 5 3 C4.67 3.99 4.34 4.98 4 6 C1 5 1 5 -0.1875 2.9375 C-0.5896875 1.9784375 -0.5896875 1.9784375 -1 1 C-0.67 0.67 -0.34 0.34 0 0 Z " fill="#1B344F" transform="translate(145,49)"/>
<path d="M0 0 C2.64 0 5.28 0 8 0 C7.67 0.99 7.34 1.98 7 3 C7.66 3 8.32 3 9 3 C9 3.66 9 4.32 9 5 C5.22454612 3.90931332 2.52956528 3.0916909 0 0 Z " fill="#D0DDE7" transform="translate(146,0)"/>
<path d="M0 0 C3.26008643 3.16952847 6.22237877 6.39937989 9 10 C8.67 10.66 8.34 11.32 8 12 C6.84545838 10.75803878 5.70167438 9.50607155 4.5625 8.25 C3.92441406 7.55390625 3.28632812 6.8578125 2.62890625 6.140625 C1.00918675 4.01207275 0.41732744 2.60976595 0 0 Z " fill="#0C1C2C" transform="translate(42,216)"/>
<path d="M0 0 C0.99 0.66 1.98 1.32 3 2 C-2.75 5 -2.75 5 -5 5 C-5 5.66 -5 6.32 -5 7 C-5.66 6.67 -6.32 6.34 -7 6 C-6 3 -6 3 -2.9375 1.3125 C-1.968125 0.879375 -0.99875 0.44625 0 0 Z " fill="#3C607C" transform="translate(141,190)"/>
<path d="M0 0 C0.66 0.33 1.32 0.66 2 1 C0.02579865 3.52259061 -0.96745642 3.9929808 -4.1875 4.6875 C-5.5796875 4.8421875 -5.5796875 4.8421875 -7 5 C-4.88437775 2.67281553 -2.94982021 1.14186589 0 0 Z " fill="#546F87" transform="translate(140,107)"/>
<path d="M0 0 C1.32 0 2.64 0 4 0 C3 3 3 3 0.625 4.75 C-2 6 -2 6 -5 5 C-4.175 4.360625 -3.35 3.72125 -2.5 3.0625 C-1.675 2.381875 -0.85 1.70125 0 1 C0 0.67 0 0.34 0 0 Z " fill="#284F6E" transform="translate(131,194)"/>
<path d="M0 0 C1.98 0.66 3.96 1.32 6 2 C6 2.99 6 3.98 6 5 C4.125 4.75 4.125 4.75 2 4 C0.75 1.9375 0.75 1.9375 0 0 Z " fill="#354A5E" transform="translate(193,159)"/>
<path d="M0 0 C-1.0975223 2.99324263 -1.67682892 3.84610901 -4.625 5.25 C-5.40875 5.4975 -6.1925 5.745 -7 6 C-5.52522876 2.59668175 -4.14385429 0 0 0 Z " fill="#396488" transform="translate(235,243)"/>
<path d="M0 0 C0.66 0.33 1.32 0.66 2 1 C2 1.66 2 2.32 2 3 C0.35 3.66 -1.3 4.32 -3 5 C-3.66 4.34 -4.32 3.68 -5 3 C-2.625 1.4375 -2.625 1.4375 0 0 Z " fill="#5D7994" transform="translate(140,140)"/>
<path d="M0 0 C1.6875 1.1875 1.6875 1.1875 3 3 C2.6875 5.6875 2.6875 5.6875 2 8 C1.62875 7.1028125 1.62875 7.1028125 1.25 6.1875 C-0.16370012 3.71352479 -1.65055383 2.56629745 -4 1 C-2 0 -2 0 0 0 Z " fill="#223446" transform="translate(197,102)"/>
<path d="M0 0 C1.125 1.5625 1.125 1.5625 2 4 C1.125 7.75 1.125 7.75 0 11 C-0.33 11 -0.66 11 -1 11 C-1.02688151 9.35425434 -1.04634123 7.70838587 -1.0625 6.0625 C-1.07410156 5.14597656 -1.08570312 4.22945313 -1.09765625 3.28515625 C-1 1 -1 1 0 0 Z " fill="#396387" transform="translate(94,87)"/>
<path d="M0 0 C0 0.66 0 1.32 0 2 C-1.2065625 2.4021875 -1.2065625 2.4021875 -2.4375 2.8125 C-3.283125 3.204375 -4.12875 3.59625 -5 4 C-5.33 4.99 -5.66 5.98 -6 7 C-6.66 7 -7.32 7 -8 7 C-6.47663111 3.31852519 -4.31953005 0 0 0 Z " fill="#2B4D6D" transform="translate(103,82)"/>
</svg>
